<svg xmlns="http://www.w3.org/2000/svg" viewBox="0 0 32 32" fill="none">
  <circle cx="16" cy="16" r="16" fill="#84A98C"/>
  <path d="M16 24 C12 20 8 17 10 13 C12 9 16 10 16 10 C16 10 20 9 22 13 C24 17 20 20 16 24Z" fill="white"/>
  <path d="M10 20 C8 18 6 15 8 12 C10 9 13 11 16 10" stroke="white" stroke-width="1" fill="none" stroke-linecap="round"/>
  <path d="M22 20 C24 18 26 15 24 12 C22 9 19 11 16 10" stroke="white" stroke-width="1" fill="none" stroke-linecap="round"/>
  <line x1="16" y1="10" x2="16" y2="24" stroke="#84A98C" stroke-width="0.8" opacity="0.5"/>
</svg>
